#!OML:ASF F:\VICON\USERDATA\INSTALL\rory3\rory3.ASF
:FULLY-SPECIFIED
:DEGREES
37
root 0.5544579741910373 18.200729349280977 -12.490841459441906 4.820121901201159 0.3037374735530398 -2.967890503561685
lfemur -28.989697255071512 -6.194783435410047 -17.48311240384499
ltibia 21.353628491206116
lfoot 9.03285624988405 -7.541849547604603
ltoes -27.83482630851554
rfemur 8.640422514930819 8.008853235547706 34.28201680864206
rtibia 52.11260277446063
rfoot 23.26861727623419 -13.690365362478609
rtoes 14.427644397540938
lowerback nan 0.6640960450030364 3.012833875611067
upperback -1.6848581999903998 1.49216522770878 1.4934815488264757
thorax -8.794926620884992 0.9843784160629948 0.32051716279035536
lowerneck -19.599442097163244 -4.719126142783342 -2.6854750942366374
upperneck 10.911552788399364 -4.772424377979035 3.5579655283855196
head 6.784700945192033 -2.496059725663789 1.1385181580686996
lclavicle -2.7691711153047025e-14 -2.0010335728599045e-14
lhumerus -63.4322821125107 -0.33402008948861006 84.10241840291759
lradius 111.10269145050536
lwrist 29.901069028257194
lhand -21.720675698812993 4.386277562839675
lfingers nan
lthumb 4.989121856566189 34.567681585115956
rclavicle -2.8032081920787743e-14 -2.07599044677303e-14
rhumerus -41.67402972341703 16.866003465966735 -94.9222868662101
rradius 125.50754087130466
rwrist -22.629739012201153
rhand -18.340364011717387 nan
rfingers nan
rthumb 7.672652603224098 8.61219479524117
38
root 0.5532387073406049 18.160882259297384 -11.446429876978389 4.599795369602858 0.372551033927504 -2.7676320269895633
lfemur -27.905726425222984 -6.713456272030232 -17.91595106154337
ltibia 20.379198338945557
lfoot 10.00658217291048 -7.570800164359227
ltoes -22.617901810465046
rfemur 7.282418411615431 7.587397882526465 33.728141322858974
rtibia 56.21514092807755
rfoot 23.36358957404242 -14.381067388734358
rtoes 14.038412373591251
lowerback nan 0.5387154764631925 2.73572811775733
upperback -1.592148008003691 1.3190728463877766 1.3848319719251434
thorax -8.721869815398868 0.9251608397164383 0.3174938651465725
lowerneck -19.431475205302785 -4.63584213258191 -2.6530385855640812
upperneck 10.169780990071727 -4.646915458161191 3.6039393612736292
head 6.52242010560932 -2.4109884669471353 1.1840491361948178
lclavicle -2.3543384958123192e-14 4.343514170256441e-15
lhumerus -62.96872172827506 -0.07810324535399715 84.03887878706568
lradius 111.03562200032093
lwrist 30.02952238151211
lhand -22.192835757146273 4.92767531778567
lfingers nan
lthumb 4.539168701180833 35.12647899149078
rclavicle -2.3477882725876986e-14 3.83052149473243e-15
rhumerus -42.285856491087216 16.844981396281874 -95.60970696131672
rradius 124.66199833018912
rwrist -21.371240864499473
rhand -19.292947613876255 nan
rfingers nan
rthumb 6.7091037674895775 5.448378031635054
39
root 0.5361811821540337 18.09706771890306 -10.772607730809213 4.300611709111216 0.8844249928070809 -2.4202295655186457
lfemur -26.88816959207182 -7.216067415122287 -18.498232469129807
ltibia 19.85497369438879
lfoot 10.748634966098521 -9.267608588467386
ltoes -19.448708242236872
rfemur 5.66294095964567 6.612361842575677 32.905946160280344
rtibia 60.55500852527781
rfoot 23.741022306297303 -14.496888268652834
rtoes 12.023912065108949
lowerback nan 0.38510583387701264 2.4148385970106414
upperback -1.4786347191545928 1.1052868399351587 1.2949164346661957
thorax -8.736884722476853 0.8555532265758398 0.27575299707504186
lowerneck -19.28094294902746 -4.665742620612725 -2.683069951150285
upperneck 9.722038823772209 -4.609719144323918 3.7076392034503227
head 6.35421937493495 -2.4077612496384733 1.2312313760720923
lclavicle 4.40110253130363e-14 1.1016108172415658e-14
lhumerus -61.865803811699 -0.04578672602364264 84.14440558307695
lradius 110.88819953173753
lwrist 30.079501922185084
lhand -22.890942953395133 4.80132634648284
lfingers nan
lthumb 3.87011341763802 35.01389017336071
rclavicle 4.397409263043269e-14 1.0548172278372903e-14
rhumerus -42.785471917089 17.029638475164216 -96.48877312963356
rradius 122.90773026014021
rwrist -16.731032861495066
rhand -23.011887336773597 nan
rfingers nan
rthumb 3.080778453974106 4.028344025982551
40
root 0.5017776315763046 18.027864741105088 -10.276737692084374 4.0196697012862765 1.4067273820317745 -2.013468104355029
lfemur -26.226836694261262 -7.483673793825158 -19.16486045711026
ltibia 20.60589668389636
lfoot 10.890332045591206 -11.100342639260557
ltoes -17.203720012449093
rfemur 4.042676293114354 5.622010658451849 32.10427660249485
rtibia 64.99973287222635
rfoot 24.385217467204114 -14.651130150733296
rtoes 11.294301963554233
lowerback nan 0.2577099188379336 1.8986499105880799
upperback -1.3232917547131933 0.8734952570937828 1.174447659592382
thorax -8.746889790669517 0.7992208504812042 0.3198038342122882
lowerneck -19.157034043163456 -4.694385472452609 -2.7347559909752834
upperneck 9.180069242096407 -4.607159872489157 3.8699228805945385
head 6.165087749415091 -2.3879367284894344 1.296435456532221
lclavicle -3.010816313903397e-14 -1.4626405115189744e-14
lhumerus -60.889616166223064 0.03079908910768836 84.16127463199689
lradius 110.71272045804177
lwrist 30.108619302120506
lhand -22.976415894425493 4.391461428384636
lfingers nan
lthumb 3.8005556791395936 34.61402502783053
rclavicle -3.027500579807533e-14 -1.4744594099331616e-14
rhumerus -42.66338292805004 16.475396012176375 -96.28607311007815
rradius 121.97396321193355
rwrist -20.640536691793574
rhand -20.244195978442715 nan
rfingers nan
rthumb 5.712773203482981 5.7846152343834545
41
root 0.4674097757198181 17.943563046917067 -9.652815456333524 3.7138252580734816 1.9948687382660808 -1.6225747865169406
lfemur -25.620971108561115 -7.619981316266351 -19.889463247007534
ltibia 21.97630606015286
lfoot 10.48153984089467 -12.43284873904473
ltoes -15.933746067130848
rfemur 2.3530561444798543 4.625555603962409 31.31093113047531
rtibia 69.40415734784047
rfoot 24.418297291929775 -15.29254386269104
rtoes 12.798318587589254
lowerback nan 0.10567772465198677 1.3730616561287547
upperback -1.0835176485985838 0.6596451215505598 1.0774448185257577
thorax -8.482749582180137 0.7316096172903273 0.4004237134245761
lowerneck -19.18853148164707 -4.730748280107847 -2.7730708672216107
upperneck 8.587562488912392 -4.595475294017479 3.9986392983121792
head 5.99615457043615 -2.3672371779866954 1.3473090869347661
lclavicle -2.53046829676866e-14 -1.0055376732107213e-14
lhumerus -59.82852646380532 0.04626691465594046 84.31719938960966
lradius 110.39450986573574
lwrist 30.07956142498553
lhand -23.222395827938445 4.1925643856763894
lfingers nan
lthumb 3.5793156915691777 34.43416153497389
rclavicle -2.552289587242717e-14 -1.0377328529904351e-14
rhumerus -42.56409369326449 16.102782875534174 -96.17107171070872
rradius 120.71247242089085
rwrist -22.260903950115377
rhand -19.061774127926228 nan
rfingers nan
rthumb 6.879727580002146 7.061441452624996
